<svg xmlns="http://www.w3.org/2000/svg" xmlns:xlink="http://www.w3.org/1999/xlink" width="58" height="58" viewBox="0 0 58 58">
  <defs>
    <filter id="Ellipse_137" x="0" y="0" width="58" height="58" filterUnits="userSpaceOnUse">
      <feOffset dy="3" input="SourceAlpha"/>
      <feGaussianBlur stdDeviation="3" result="blur"/>
      <feFlood flood-opacity="0.051"/>
      <feComposite operator="in" in2="blur"/>
      <feComposite in="SourceGraphic"/>
    </filter>
    <filter id="Ellipse_136" x="5" y="5" width="48" height="48" filterUnits="userSpaceOnUse">
      <feOffset dy="3" input="SourceAlpha"/>
      <feGaussianBlur stdDeviation="3" result="blur-2"/>
      <feFlood flood-opacity="0.051"/>
      <feComposite operator="in" in2="blur-2"/>
      <feComposite in="SourceGraphic"/>
    </filter>
  </defs>
  <g id="wait" transform="translate(9 6)">
    <g transform="matrix(1, 0, 0, 1, -9, -6)" filter="url(#Ellipse_137)">
      <circle id="Ellipse_137-2" data-name="Ellipse 137" cx="20" cy="20" r="20" transform="translate(9 6)" fill="#f4f5f4"/>
    </g>
    <g transform="matrix(1, 0, 0, 1, -9, -6)" filter="url(#Ellipse_136)">
      <circle id="Ellipse_136-2" data-name="Ellipse 136" cx="15" cy="15" r="15" transform="translate(14 11)" fill="rgba(77,172,245,0.7)"/>
    </g>
    <path id="ic_hourglass_empty_24px" d="M6,2V5.909h.007L6,5.915l2.606,2.6L6,11.12l.007.007H6v3.9h7.817v-3.9h-.007l.007-.007L11.212,8.515l2.606-2.6-.007-.007h.007V2Zm6.515,9.446v2.28H7.3v-2.28L9.909,8.84ZM9.909,8.189,7.3,5.583V3.3h5.212v2.28Z" transform="translate(10 11.971)" fill="rgba(246,250,248,0.75)"/>
  </g>
</svg>
